<svg width="64" height="64" viewBox="0 0 64 64" fill="none" xmlns="http://www.w3.org/2000/svg">
<path fill-rule="evenodd" clip-rule="evenodd" d="M27.1091 60.3503C27.2337 60.3681 27.3602 60.3681 27.4848 60.3503C27.6095 60.3681 27.736 60.3681 27.8606 60.3503C29.2884 59.8693 30.647 59.3433 31.9374 58.7713L19.3753 50.9398L19.2734 50.8635C18.3804 50.1955 17.5454 48.9961 17.5454 47.4887C17.5454 46.2254 18.132 44.8053 19.4162 44.0074L19.3788 43.9842L19.2734 43.9053C18.3804 43.2373 17.5454 42.0379 17.5454 40.5305C17.5454 39.023 18.3804 37.8237 19.2734 37.1557L19.3627 37.0888L19.2734 37.022C18.4785 36.4273 17.5454 35.3271 17.5454 33.6471C17.5454 32.337 18.1763 30.8583 19.5619 30.0798L38.1086 18.5173L38.132 18.5033C39.4557 17.7111 41.0897 17.7111 42.4134 18.5033L42.4368 18.5173L50.9685 23.8361V12.2639C50.9803 12.0052 50.9061 11.7498 50.7574 11.5377C50.6088 11.3255 50.394 11.1685 50.1465 11.0911L27.8371 4.05402C27.6078 3.98199 27.3619 3.98199 27.1326 4.05402L4.82316 11.0911C4.57574 11.1685 4.36094 11.3255 4.21226 11.5377C4.06357 11.7498 3.98937 12.0052 4.00123 12.2639V26.338C4.00123 44.2472 11.3399 55.0373 27.1091 60.3503Z" fill="url(#paint0_linear_10_11364)"/>
<path fill-rule="evenodd" clip-rule="evenodd" d="M39.6726 46.142C40.0477 46.3665 40.4977 46.3665 40.8728 46.142L59.4749 34.6198C59.7749 34.3953 60 34.0212 60 33.6471C60 33.273 59.7749 32.8989 59.4749 32.6745L40.8728 21.0775C40.4977 20.853 40.0477 20.853 39.6726 21.0775L21.0705 32.6745C20.7705 32.8241 20.5454 33.1982 20.5454 33.6471C20.5454 34.0961 20.7705 34.3953 21.0705 34.6198L39.6726 46.142ZM57.6747 45.3937L40.8728 55.7936C40.4977 56.0181 40.0477 56.0181 39.6726 55.7936L22.9457 45.3937L21.0705 46.516C20.7704 46.6657 20.5454 47.0398 20.5454 47.4887C20.5454 47.8628 20.7704 48.2369 21.0705 48.4613L39.6726 60.0584C40.0477 60.2828 40.4977 60.2828 40.8728 60.0584L59.4749 48.4613C59.7749 48.2369 60 47.8628 60 47.4887C60 47.1146 59.7749 46.7405 59.4749 46.516L57.6747 45.3937ZM40.8728 48.8355L57.6747 38.4355L59.4749 39.5578C59.7749 39.7823 60 40.1564 60 40.5305C60 40.9046 59.7749 41.2787 59.4749 41.5031L40.8728 53.0253C40.4977 53.2498 40.0477 53.2498 39.6726 53.0253L21.0705 41.5031C20.7704 41.2787 20.5454 40.9046 20.5454 40.5305C20.5454 40.1564 20.7704 39.7823 21.0705 39.5578L22.9457 38.4355L39.6726 48.8355C40.0477 49.0599 40.4977 49.0599 40.8728 48.8355Z" fill="url(#paint1_linear_10_11364)"/>
<defs>
<linearGradient id="paint0_linear_10_11364" x1="10.7808" y1="3.99999" x2="68.169" y2="17.4721" gradientUnits="userSpaceOnUse">
<stop stop-color="#9043C6"/>
<stop offset="1" stop-color="#145DEB"/>
</linearGradient>
<linearGradient id="paint1_linear_10_11364" x1="26.2413" y1="20.9091" x2="73.3406" y2="34.2228" gradientUnits="userSpaceOnUse">
<stop stop-color="#43B59A"/>
<stop offset="1" stop-color="#145DEB"/>
</linearGradient>
</defs>
</svg>
