<svg width="64" height="64" viewBox="0 0 64 64" fill="none" xmlns="http://www.w3.org/2000/svg">
<path fill-rule="evenodd" clip-rule="evenodd" d="M27.5 59.9867C27.3753 60.0044 27.2487 60.0044 27.124 59.9867C11.3446 54.7081 4.00123 43.9875 4.00123 26.1938V12.2106C3.98937 11.9535 4.06361 11.6998 4.21239 11.489C4.36117 11.2783 4.57611 11.1222 4.82369 11.0453L27.1475 4.05367C27.377 3.98211 27.623 3.98211 27.8525 4.05367L50.1763 11.0453C50.4239 11.1222 50.6388 11.2783 50.7876 11.489C50.9364 11.6998 51.0106 11.9535 50.9988 12.2106V20.3556C50.3771 21.0605 50 21.9862 50 23V27C50 27.0195 50.0001 27.039 50.0004 27.0584C50.0006 27.0724 50.0009 27.0863 50.0012 27.1003C49.6777 27.0345 49.3429 27 49 27H44C41.2386 27 39 29.2386 39 32V37C39 38.6356 39.7853 40.0878 40.9995 41H33C30.2386 41 28 43.2386 28 46V58C28 58.645 28.1221 59.2615 28.3445 59.8275C28.1892 59.8811 28.033 59.9342 27.876 59.9867C27.7513 60.0044 27.6247 60.0044 27.5 59.9867Z" fill="url(#paint0_linear_258_17407)"/>
<path fill-rule="evenodd" clip-rule="evenodd" d="M59 23C59 22.4477 58.5523 22 58 22H54C53.4477 22 53 22.4477 53 23V27C53 27.5523 53.4477 28 54 28H58C58.5523 28 59 27.5523 59 27V23ZM51 32C51 30.8954 50.1046 30 49 30H44C42.8954 30 42 30.8954 42 32V37C42 38.1046 42.8954 39 44 39H49C50.1046 39 51 38.1046 51 37V32ZM58 50C59.1046 50 60 50.8954 60 52V58C60 59.1046 59.1046 60 58 60H52C50.8954 60 50 59.1046 50 58V52C50 50.8954 50.8954 50 52 50H58ZM47 46C47 44.8954 46.1046 44 45 44H33C31.8954 44 31 44.8954 31 46V58C31 59.1046 31.8954 60 33 60H45C46.1046 60 47 59.1046 47 58V46ZM58 39C59.1046 39 60 39.8954 60 41V45C60 46.1046 59.1046 47 58 47H54C52.8954 47 52 46.1046 52 45V41C52 39.8954 52.8954 39 54 39H58Z" fill="url(#paint1_linear_258_17407)"/>
<defs>
<linearGradient id="paint0_linear_258_17407" x1="10.7852" y1="3.99999" x2="68.1675" y2="17.5669" gradientUnits="userSpaceOnUse">
<stop stop-color="#9043C6"/>
<stop offset="1" stop-color="#145DEB"/>
</linearGradient>
<linearGradient id="paint1_linear_258_17407" x1="60" y1="22" x2="25.0232" y2="28.6732" gradientUnits="userSpaceOnUse">
<stop stop-color="#43B59A"/>
<stop offset="1" stop-color="#FFE792"/>
</linearGradient>
</defs>
</svg>
