<svg width="64" height="64" viewBox="0 0 64 64" fill="none" xmlns="http://www.w3.org/2000/svg">
<path fill-rule="evenodd" clip-rule="evenodd" d="M29.1091 60.3503C29.2337 60.3681 29.3602 60.3681 29.4848 60.3503C29.6095 60.3681 29.736 60.3681 29.8606 60.3503C34.0028 58.9547 37.5633 57.1812 40.5619 55H29.5C27.0147 55 25 52.9853 25 50.5V23.5C25 21.0147 27.0147 19 29.5 19H52.9685V12.2639C52.9803 12.0052 52.9061 11.7498 52.7574 11.5377C52.6088 11.3255 52.394 11.1685 52.1465 11.0911L29.8371 4.05402C29.6078 3.98199 29.3619 3.98199 29.1326 4.05402L6.82316 11.0911C6.57574 11.1685 6.36094 11.3255 6.21226 11.5377C6.06357 11.7498 5.98937 12.0052 6.00123 12.2639V26.338C6.00123 44.2472 13.3399 55.0373 29.1091 60.3503Z" fill="url(#paint0_linear_10_11234)"/>
<path fill-rule="evenodd" clip-rule="evenodd" d="M29.5 22C28.6716 22 28 22.6716 28 23.5V50.5C28 51.3284 28.6716 52 29.5 52H56.5C57.3284 52 58 51.3284 58 50.5V23.5C58 22.6716 57.3284 22 56.5 22H29.5ZM45.0522 29.6132C44.2754 29.4107 43.4816 29.8763 43.2792 30.653L40.1021 42.8421C39.8996 43.6188 40.3652 44.4126 41.1419 44.6151C41.9187 44.8175 42.7125 44.352 42.9149 43.5752L46.092 31.3862C46.2945 30.6095 45.8289 29.8157 45.0522 29.6132ZM47.7806 31.3122C48.2966 30.6973 49.2133 30.6171 49.8282 31.1331L54.4994 35.0526C55.1143 35.5686 55.1945 36.4853 54.6785 37.1002C54.6641 37.1175 54.6493 37.1342 54.6342 37.1506L50.674 41.8702C50.1581 42.4851 49.2413 42.5653 48.6264 42.0494C48.0115 41.5334 47.9313 40.6167 48.4473 40.0018L51.5163 36.3442L47.9597 33.3598C47.3448 32.8439 47.2646 31.9271 47.7806 31.3122ZM37.3669 31.1331C37.9818 30.6171 38.8986 30.6973 39.4145 31.3122C39.9305 31.9271 39.8503 32.8439 39.2354 33.3598L35.6788 36.3442L38.7434 39.9964C39.2593 40.6113 39.1791 41.5281 38.5642 42.044C37.9493 42.56 37.0326 42.4798 36.5166 41.8649L32.5609 37.1506C32.5458 37.1342 32.5311 37.1175 32.5166 37.1002C32.0006 36.4853 32.0809 35.5686 32.6958 35.0526L37.3669 31.1331Z" fill="url(#paint1_linear_10_11234)"/>
<defs>
<linearGradient id="paint0_linear_10_11234" x1="12.7808" y1="3.99999" x2="70.169" y2="17.4721" gradientUnits="userSpaceOnUse">
<stop stop-color="#9043C6"/>
<stop offset="1" stop-color="#145DEB"/>
</linearGradient>
<linearGradient id="paint1_linear_10_11234" x1="23.4167" y1="22" x2="64.6667" y2="61.5833" gradientUnits="userSpaceOnUse">
<stop stop-color="#14B7EB"/>
<stop offset="1" stop-color="#145DEB"/>
</linearGradient>
</defs>
</svg>
