<svg width="64" height="64" viewBox="0 0 64 64" fill="none" xmlns="http://www.w3.org/2000/svg">
<path fill-rule="evenodd" clip-rule="evenodd" d="M28.1091 60.3503C28.2337 60.3681 28.3602 60.3681 28.4848 60.3503C28.6095 60.3681 28.736 60.3681 28.8606 60.3503C30.2425 59.8847 31.5597 59.377 32.8129 58.8262L24.8426 54.2006C23.7132 53.5436 23 52.3278 23 50.9984V33.8254C23 32.6233 23.5502 31.6089 24.3728 30.9467C24.1017 29.4867 24.6887 27.8863 26.1672 27.0252L26.1718 27.0225L40.6749 18.6101L41.1281 18.3482C42.2835 17.6806 43.7113 17.6806 44.8667 18.3482L45.3242 18.6126L51.9685 22.4666V12.2639C51.9803 12.0052 51.9061 11.7498 51.7574 11.5377C51.6088 11.3255 51.394 11.1685 51.1465 11.0911L28.8371 4.05402C28.6078 3.98199 28.3619 3.98199 28.1326 4.05402L5.82316 11.0911C5.57574 11.1685 5.36094 11.3255 5.21226 11.5377C5.06357 11.7498 4.98937 12.0052 5.00123 12.2639V26.338C5.00123 44.2472 12.3399 55.0373 28.1091 60.3503Z" fill="url(#paint0_linear_10_10813)"/>
<path fill-rule="evenodd" clip-rule="evenodd" d="M58.3177 29.6176C58.8107 29.9023 58.805 30.6254 58.3064 30.9044L43.8189 38.9329L43.3544 39.1891C43.1334 39.3144 42.8671 39.3144 42.6461 39.1891L42.1815 38.9329L27.6884 30.9044C27.1898 30.6254 27.1785 29.908 27.6771 29.6176L42.1759 21.2076L42.6291 20.9457C42.8558 20.8147 43.1391 20.8147 43.3657 20.9457L43.8189 21.2076L58.3177 29.6176ZM44.3001 41.7457V59.2944C44.3001 59.8354 44.8837 60.1713 45.3483 59.9037L59.6487 51.6076C59.864 51.4823 60 51.2489 60 50.9984V33.8254C60 33.2902 59.4278 32.9542 58.9632 33.2105L44.657 41.1307C44.4361 41.256 44.3001 41.4895 44.3001 41.7457ZM26 50.9984V33.8254C26 33.2902 26.5722 32.9542 27.0368 33.2105L41.3317 41.1307C41.5583 41.256 41.6943 41.4895 41.6943 41.7457V59.2944C41.6943 59.8354 41.1107 60.177 40.6461 59.9037L26.3513 51.6076C26.136 51.4823 26 51.2489 26 50.9984Z" fill="url(#paint1_linear_10_10813)"/>
<defs>
<linearGradient id="paint0_linear_10_10813" x1="11.7808" y1="3.99999" x2="69.169" y2="17.4721" gradientUnits="userSpaceOnUse">
<stop stop-color="#9043C6"/>
<stop offset="1" stop-color="#145DEB"/>
</linearGradient>
<linearGradient id="paint1_linear_10_10813" x1="30.9085" y1="20.8475" x2="72.2647" y2="30.964" gradientUnits="userSpaceOnUse">
<stop stop-color="#F99048"/>
<stop offset="1" stop-color="#E555AC"/>
</linearGradient>
</defs>
</svg>
