<svg width="64" height="64" viewBox="0 0 64 64" fill="none" xmlns="http://www.w3.org/2000/svg">
<path fill-rule="evenodd" clip-rule="evenodd" d="M28.1091 60.3503C28.2337 60.3681 28.3602 60.3681 28.4848 60.3503C28.6095 60.3681 28.736 60.3681 28.8606 60.3503C33.0028 58.9547 36.5633 57.1812 39.5619 55H27.4154L27.3992 54.9998C24.8701 54.9724 22.4233 54.0539 20.519 52.3945C18.6124 50.733 17.3777 48.4383 17.0733 45.9301C16.7688 43.4211 17.4201 40.8996 18.8874 38.8402C19.7451 37.6364 20.8451 36.6408 22.1028 35.9026C21.9899 35.2129 21.9307 34.5141 21.9265 33.8122L21.9263 33.785L21.9267 33.7578C21.9669 30.455 23.2085 27.286 25.411 24.8062C27.6115 22.3285 30.6276 20.6982 33.9196 20.1787C37.2109 19.6593 40.5911 20.2794 43.4696 21.9412C45.6514 23.2008 47.4455 25.0021 48.6726 27.1537L48.6753 27.1537L48.7008 27.1533H48.7264C49.8216 27.1533 50.9054 27.2761 51.9577 27.5147C51.9649 27.1259 51.9685 26.7337 51.9685 26.3379V12.2639C51.9803 12.0052 51.9061 11.7498 51.7574 11.5376C51.6088 11.3255 51.394 11.1684 51.1465 11.091L28.8371 4.05399C28.6078 3.98196 28.3619 3.98196 28.1326 4.05399L5.82316 11.091C5.57574 11.1684 5.36094 11.3255 5.21226 11.5376C5.06357 11.7498 4.98937 12.0052 5.00123 12.2639V26.3379C5.00123 44.2472 12.3399 55.0373 28.1091 60.3503Z" fill="url(#paint0_linear_5466_18885)"/>
<path d="M60 41.0766C60 38.1796 58.8122 35.4012 56.698 33.3527C54.5838 31.3041 51.7163 30.1533 48.7264 30.1533C48.096 30.164 47.4675 30.2249 46.8474 30.3353C45.976 27.9074 44.2488 25.8551 41.9697 24.5394C39.6906 23.2236 37.0056 22.7288 34.3872 23.142C31.7687 23.5552 29.3845 24.8499 27.6541 26.7983C25.9236 28.7467 24.9578 31.224 24.9264 33.7944C24.9343 35.1155 25.1933 36.4239 25.6905 37.654C23.9184 38.0838 22.3685 39.1244 21.3307 40.581C20.2928 42.0377 19.8381 43.8108 20.0515 45.5687C20.2648 47.3266 21.1317 48.9491 22.49 50.1328C23.8483 51.3164 25.605 51.9802 27.4317 52H49.979V51.8786C52.7254 51.5811 55.2634 50.3166 57.1108 48.3252C58.9582 46.3338 59.9864 43.7543 60 41.0766Z" fill="url(#paint1_linear_5466_18885)"/>
<defs>
<linearGradient id="paint0_linear_5466_18885" x1="11.7808" y1="3.99996" x2="69.169" y2="17.4721" gradientUnits="userSpaceOnUse">
<stop stop-color="#9043C6"/>
<stop offset="1" stop-color="#145DEB"/>
</linearGradient>
<linearGradient id="paint1_linear_5466_18885" x1="8.74567" y1="35.5318" x2="59.1407" y2="35.5318" gradientUnits="userSpaceOnUse">
<stop stop-color="#E555AC"/>
<stop offset="1" stop-color="#9043C6"/>
</linearGradient>
</defs>
</svg>
