<svg xmlns="http://www.w3.org/2000/svg" viewBox="0 0 16 16" style="stroke: #909aa5;">
  <path stroke-width="0" fill="#909aa5" d="M15.3973 3.43189C14.8422 3.67392 14.2547 3.83342 13.6534 3.90532C14.2873 3.52477 14.7603 2.92557 14.9831 2.22056C14.3906 2.5763 13.7407 2.82629 13.0625 2.95938C12.2118 2.05164 10.8932 1.75525 9.73585 2.21165C8.57853 2.66805 7.81713 3.78474 7.81501 5.0288C7.81501 5.26459 7.84367 5.50131 7.88898 5.72323C5.45098 5.60209 3.17869 4.45284 1.63633 2.56084C1.364 3.02141 1.22089 3.54688 1.22207 4.08193C1.22137 5.09588 1.72589 6.04354 2.56747 6.60907C2.08427 6.5973 1.61165 6.46508 1.19248 6.22441V6.26879C1.19764 7.71245 2.21673 8.95368 3.63178 9.23977C3.38026 9.31375 3.11396 9.34334 2.83378 9.34334C2.64145 9.34334 2.44912 9.32854 2.25678 9.28416C2.65489 10.5203 3.79703 11.3648 5.09554 11.3832C3.82387 12.3815 2.20761 12.8335 0.602539 12.6398C1.98809 13.5266 3.59842 13.9986 5.24348 14C10.8156 14 13.8753 9.37385 13.8753 5.36816C13.8753 5.235 13.8753 5.10277 13.8605 4.96962C14.4744 4.56979 14.9979 4.046 15.3973 3.43189V3.43189Z"/>
</svg>