<svg width="14" height="14" viewbox="0 0 16 16" fill="none" xmlns="http://www.w3.org/2000/svg"><title>Intercom</title><g clip-path="url(#clip0_1870_86937)"><path d="M14 0H2C0.895 0 0 0.895 0 2V14C0 15.105 0.895 16 2 16H14C15.105 16 16 15.105 16 14V2C16 0.895 15.105 0 14 0ZM10.133 3.02C10.133 2.727 10.373 2.49 10.667 2.49C10.961 2.49 11.2 2.727 11.2 3.02V10.134C11.2 10.428 10.96 10.667 10.667 10.667C10.372 10.667 10.133 10.427 10.133 10.134V3.02ZM7.467 2.672C7.467 2.375 7.705 2.132 8 2.132C8.294 2.132 8.533 2.375 8.533 2.672V10.484C8.533 10.781 8.293 11.022 8 11.022C7.705 11.022 7.467 10.782 7.467 10.484V2.672ZM4.8 3.022C4.8 2.727 5.04 2.489 5.333 2.489C5.628 2.489 5.867 2.726 5.867 3.019V10.133C5.867 10.427 5.627 10.666 5.333 10.666C5.039 10.666 4.8 10.426 4.8 10.133V3.02V3.022ZM2.133 4.088C2.133 3.792 2.373 3.554 2.667 3.554C2.961 3.554 3.2 3.792 3.2 4.087V8.887C3.2 9.18 2.96 9.419 2.667 9.419C2.372 9.419 2.133 9.179 2.133 8.886V4.086V4.088ZM13.68 12.136C13.598 12.206 11.622 13.866 8 13.866C4.378 13.866 2.402 12.206 2.32 12.136C2.096 11.946 2.07 11.608 2.262 11.384C2.452 11.161 2.789 11.134 3.012 11.324C3.044 11.355 4.808 12.8 8 12.8C11.232 12.8 12.97 11.343 12.986 11.328C13.209 11.138 13.546 11.163 13.738 11.386C13.93 11.61 13.904 11.946 13.68 12.138V12.136ZM13.867 8.886C13.867 9.181 13.627 9.42 13.333 9.42C13.039 9.42 12.8 9.18 12.8 8.887V4.087C12.8 3.791 13.04 3.553 13.333 3.553C13.628 3.553 13.867 3.791 13.867 4.086V8.886Z" class="fill-current" /></g><defs><clippath id="clip0_1870_86937"><rect width="16" height="16" fill="none" /></clippath></defs></svg>