<svg width="22" height="21" viewbox="0 0 22 21" xmlns="http://www.w3.org/2000/svg" class="fill-inherit" aria-hidden="true"><path fill-rule="evenodd" clip-rule="evenodd" d="M3.27485 8.7001C3.27485 5.42781 5.92757 2.7751 9.19985 2.7751C12.4721 2.7751 15.1249 5.42781 15.1249 8.7001C15.1249 11.9724 12.4721 14.6251 9.19985 14.6251C5.92757 14.6251 3.27485 11.9724 3.27485 8.7001ZM9.19985 0.225098C4.51924 0.225098 0.724854 4.01948 0.724854 8.7001C0.724854 13.3807 4.51924 17.1751 9.19985 17.1751C11.0802 17.1751 12.8176 16.5627 14.2234 15.5265L19.0981 20.4013C19.5961 20.8992 20.4033 20.8992 20.9013 20.4013C21.3992 19.9033 21.3992 19.0961 20.9013 18.5981L16.0264 13.7233C17.0625 12.3176 17.6749 10.5804 17.6749 8.7001C17.6749 4.01948 13.8805 0.225098 9.19985 0.225098Z" /></svg>