<svg id="locale-picker-globe" width="16" height="16" viewbox="0 0 16 16" fill="none" xmlns="http://www.w3.org/2000/svg" class="shrink-0" aria-hidden="true"><path d="M8 15C11.866 15 15 11.866 15 8C15 4.13401 11.866 1 8 1C4.13401 1 1 4.13401 1 8C1 11.866 4.13401 15 8 15Z" stroke="currentColor" stroke-linecap="round" stroke-linejoin="round" /><path d="M8 15C9.39949 15 10.534 11.866 10.534 8C10.534 4.13401 9.39949 1 8 1C6.60051 1 5.466 4.13401 5.466 8C5.466 11.866 6.60051 15 8 15Z" stroke="currentColor" stroke-linecap="round" stroke-linejoin="round" /><path d="M1.448 5.75989H14.524" stroke="currentColor" stroke-linecap="round" stroke-linejoin="round" /><path d="M1.448 10.2402H14.524" stroke="currentColor" stroke-linecap="round" stroke-linejoin="round" /></svg>