<svg width="24" height="24" viewbox="0 0 16 16" xmlns="http://www.w3.org/2000/svg"><path d="M3.5097 3.5097C3.84165 3.17776 4.37984 3.17776 4.71178 3.5097L7.99983 6.79775L11.2879 3.5097C11.6198 3.17776 12.158 3.17776 12.49 3.5097C12.8219 3.84165 12.8219 4.37984 12.49 4.71178L9.20191 7.99983L12.49 11.2879C12.8219 11.6198 12.8219 12.158 12.49 12.49C12.158 12.8219 11.6198 12.8219 11.2879 12.49L7.99983 9.20191L4.71178 12.49C4.37984 12.8219 3.84165 12.8219 3.5097 12.49C3.17776 12.158 3.17776 11.6198 3.5097 11.2879L6.79775 7.99983L3.5097 4.71178C3.17776 4.37984 3.17776 3.84165 3.5097 3.5097Z" /></svg>