<svg xmlns="http://www.w3.org/2000/svg" viewBox="0 0 16 16" style="stroke: #909aa5;">
  <path stroke-width="0" fill="#909aa5" fill-rule="evenodd" clip-rule="evenodd" d="M2.24927 4.16968C3.34257 4.16968 4.01312 3.44081 4.01312 2.5516C3.99854 1.61865 3.34257 0.918945 2.26385 0.918945C1.19971 0.918945 0.5 1.61865 0.5 2.5516C0.5 3.45539 1.17055 4.16968 2.22012 4.16968H2.24927ZM3.61954 14.6067V5.47409H0.5V14.6067H3.61954ZM5.96694 14.7817L5.96596 15.0805C5.96596 15.0805 5.96633 14.9733 5.96694 14.7817ZM9.0855 7.01904V5.69275H5.96596C5.99185 6.45636 5.97177 13.2645 5.96694 14.7817H9.0855V9.83269C9.0855 9.55572 9.10007 9.26418 9.18754 9.07467C9.4062 8.50616 9.93098 7.93764 10.791 7.93764C11.9281 7.93764 12.38 8.7977 12.38 10.0659V14.7817H15.4995V9.70149C15.4995 6.8152 13.9543 5.47409 11.8989 5.47409C10.2462 5.47409 9.51254 6.37924 9.0855 7.01904Z"/>
</svg>