<svg xmlns="http://www.w3.org/2000/svg" viewBox="0 0 16 16" style="stroke: #909aa5;">
  <path stroke-width="0" fill="#909aa5" fill-rule="evenodd" clip-rule="evenodd" d="M1 8.03518C1 11.5176 3.52 14.402 6.845 15L6.95637 14.9084C6.93096 14.9041 6.90555 14.8996 6.88015 14.895V9.96002H5.13015V8.00002H6.88015V6.46002C6.88015 4.71002 8.00015 3.73002 9.61015 3.73002C10.1001 3.73002 10.6601 3.80002 11.1501 3.87002V5.65502H10.2401C9.40015 5.65502 9.19015 6.07502 9.19015 6.63503V8.00002H11.0451L10.7301 9.96002H9.19015V14.895C9.14523 14.9032 9.10031 14.9109 9.0554 14.9181L9.155 15C12.48 14.402 15 11.5176 15 8.03518C15 4.16583 11.85 1 8 1C4.15 1 1 4.16583 1 8.03518Z"/>
</svg>