<svg width="24" height="24" viewbox="0 0 16 16" xmlns="http://www.w3.org/2000/svg" class="fill-current"><path d="M1.86861 2C1.38889 2 1 2.3806 1 2.85008C1 3.31957 1.38889 3.70017 1.86861 3.70017H14.1314C14.6111 3.70017 15 3.31957 15 2.85008C15 2.3806 14.6111 2 14.1314 2H1.86861Z" /><path d="M1 8C1 7.53051 1.38889 7.14992 1.86861 7.14992H14.1314C14.6111 7.14992 15 7.53051 15 8C15 8.46949 14.6111 8.85008 14.1314 8.85008H1.86861C1.38889 8.85008 1 8.46949 1 8Z" /><path d="M1 13.1499C1 12.6804 1.38889 12.2998 1.86861 12.2998H14.1314C14.6111 12.2998 15 12.6804 15 13.1499C15 13.6194 14.6111 14 14.1314 14H1.86861C1.38889 14 1 13.6194 1 13.1499Z" /></svg>